<svg width="111" height="17" viewBox="0 0 111 17" fill="none" xmlns="http://www.w3.org/2000/svg">
<path d="M102.216 16V3.39998L104.016 3.05798V10.852L108.462 6.83798H110.568L105.834 11.122L110.82 16H108.444L104.016 11.698V16H102.216Z" fill="white"/>
<path d="M92.0034 16V6.83796H93.8034V7.77396C94.5114 7.02996 95.4294 6.65796 96.5574 6.65796C97.2654 6.65796 97.8834 6.80796 98.4114 7.10796C98.9514 7.40796 99.3714 7.82796 99.6714 8.36796C99.9834 8.90796 100.139 9.53196 100.139 10.24V16H98.3394V10.546C98.3394 9.82596 98.1354 9.26196 97.7274 8.85396C97.3314 8.43396 96.7734 8.22396 96.0534 8.22396C95.5734 8.22396 95.1414 8.32596 94.7574 8.52996C94.3734 8.73396 94.0554 9.02796 93.8034 9.41196V16H92.0034Z" fill="white"/>
<path d="M85.3213 16.162C84.6613 16.162 84.0793 16.048 83.5753 15.82C83.0713 15.58 82.6753 15.25 82.3873 14.83C82.0993 14.41 81.9553 13.924 81.9553 13.372C81.9553 12.508 82.2853 11.83 82.9453 11.338C83.6053 10.834 84.5113 10.582 85.6633 10.582C86.5633 10.582 87.3973 10.756 88.1653 11.104V10.132C88.1653 9.47196 87.9733 8.97996 87.5893 8.65596C87.2173 8.33196 86.6653 8.16996 85.9333 8.16996C85.5133 8.16996 85.0753 8.23596 84.6193 8.36796C84.1633 8.48796 83.6533 8.67996 83.0893 8.94396L82.4233 7.59396C83.1193 7.26996 83.7673 7.03596 84.3673 6.89196C84.9673 6.73596 85.5733 6.65796 86.1853 6.65796C87.3733 6.65796 88.2913 6.93996 88.9393 7.50396C89.5993 8.06796 89.9293 8.87196 89.9293 9.91596V16H88.1653V15.208C87.7573 15.532 87.3193 15.772 86.8513 15.928C86.3833 16.084 85.8733 16.162 85.3213 16.162ZM83.6833 13.336C83.6833 13.78 83.8693 14.14 84.2413 14.416C84.6253 14.68 85.1233 14.812 85.7353 14.812C86.2153 14.812 86.6533 14.746 87.0493 14.614C87.4573 14.47 87.8293 14.248 88.1653 13.948V12.4C87.8173 12.196 87.4513 12.052 87.0673 11.968C86.6953 11.872 86.2753 11.824 85.8073 11.824C85.1473 11.824 84.6253 11.962 84.2413 12.238C83.8693 12.502 83.6833 12.868 83.6833 13.336Z" fill="white"/>
<path d="M70.5632 16V3.40002H76.0172C76.8452 3.40002 77.5652 3.53802 78.1772 3.81402C78.7892 4.09002 79.2632 4.48002 79.5992 4.98402C79.9352 5.47602 80.1032 6.05802 80.1032 6.73002C80.1032 7.34203 79.9472 7.88202 79.6352 8.35002C79.3232 8.81802 78.8852 9.19002 78.3212 9.46602C79.0292 9.71802 79.5812 10.102 79.9772 10.618C80.3852 11.122 80.5892 11.716 80.5892 12.4C80.5892 13.132 80.4092 13.768 80.0492 14.308C79.7012 14.848 79.1972 15.268 78.5372 15.568C77.8892 15.856 77.1272 16 76.2512 16H70.5632ZM72.4532 8.74602H75.9092C76.6172 8.74602 77.1812 8.57802 77.6012 8.24202C78.0212 7.90602 78.2312 7.45003 78.2312 6.87402C78.2312 6.29803 78.0212 5.84203 77.6012 5.50603C77.1812 5.17003 76.6172 5.00203 75.9092 5.00203H72.4532V8.74602ZM72.4532 14.398H76.1072C76.8992 14.398 77.5232 14.212 77.9792 13.84C78.4472 13.468 78.6812 12.964 78.6812 12.328C78.6812 11.704 78.4472 11.206 77.9792 10.834C77.5232 10.45 76.8992 10.258 76.1072 10.258H72.4532V14.398Z" fill="white"/>
<path d="M60.9077 16V3.39998L62.7077 3.05798V10.852L67.1537 6.83798H69.2597L64.5257 11.122L69.5117 16H67.1357L62.7077 11.698V16H60.9077Z" fill="white"/>
<path d="M55.8231 16.162C54.9471 16.162 54.1491 15.952 53.4291 15.532C52.7091 15.112 52.1391 14.542 51.7191 13.822C51.3111 13.102 51.1071 12.298 51.1071 11.41C51.1071 10.522 51.3171 9.72396 51.7371 9.01596C52.1571 8.29596 52.7211 7.72596 53.4291 7.30596C54.1491 6.87396 54.9471 6.65796 55.8231 6.65796C56.5191 6.65796 57.1851 6.78996 57.8211 7.05396C58.4691 7.31796 59.0271 7.68996 59.4951 8.16996L58.3791 9.41196C58.0311 9.02796 57.6411 8.73996 57.2091 8.54796C56.7771 8.35596 56.3271 8.25996 55.8591 8.25996C55.3071 8.25996 54.8031 8.39796 54.3471 8.67396C53.9031 8.94996 53.5491 9.32796 53.2851 9.80796C53.0211 10.288 52.8891 10.822 52.8891 11.41C52.8891 11.998 53.0211 12.532 53.2851 13.012C53.5491 13.492 53.9091 13.876 54.3651 14.164C54.8211 14.44 55.3311 14.578 55.8951 14.578C56.3631 14.578 56.8011 14.488 57.2091 14.308C57.6171 14.116 58.0011 13.84 58.3611 13.48L59.4591 14.632C58.9791 15.124 58.4211 15.502 57.7851 15.766C57.1611 16.03 56.5071 16.162 55.8231 16.162Z" fill="white"/>
<path d="M45.0489 16.18C44.1609 16.18 43.3509 15.97 42.6189 15.55C41.8989 15.13 41.3289 14.56 40.9089 13.84C40.4889 13.12 40.2789 12.316 40.2789 11.428C40.2789 10.54 40.4889 9.73596 40.9089 9.01596C41.3289 8.29596 41.8989 7.72596 42.6189 7.30596C43.3509 6.87396 44.1609 6.65796 45.0489 6.65796C45.9489 6.65796 46.7589 6.87396 47.4789 7.30596C48.1989 7.72596 48.7689 8.29596 49.1889 9.01596C49.6089 9.73596 49.8189 10.54 49.8189 11.428C49.8189 12.316 49.6089 13.12 49.1889 13.84C48.7689 14.56 48.1989 15.13 47.4789 15.55C46.7589 15.97 45.9489 16.18 45.0489 16.18ZM45.0489 14.596C45.6129 14.596 46.1229 14.458 46.5789 14.182C47.0349 13.894 47.3949 13.51 47.6589 13.03C47.9229 12.55 48.0549 12.01 48.0549 11.41C48.0549 10.822 47.9169 10.294 47.6409 9.82596C47.3769 9.34596 47.0169 8.96196 46.5609 8.67396C46.1169 8.38596 45.6129 8.24196 45.0489 8.24196C44.4849 8.24196 43.9749 8.38596 43.5189 8.67396C43.0749 8.96196 42.7149 9.34596 42.4389 9.82596C42.1749 10.294 42.0429 10.822 42.0429 11.41C42.0429 12.01 42.1749 12.55 42.4389 13.03C42.7029 13.51 43.0629 13.894 43.5189 14.182C43.9749 14.458 44.4849 14.596 45.0489 14.596Z" fill="white"/>
<path d="M37.7614 16.1619C36.8734 16.1619 36.1954 15.9579 35.7274 15.5499C35.2594 15.1299 35.0254 14.5239 35.0254 13.7319V8.34992H33.0814V6.83792H35.0254V4.49792L36.8074 4.06592V6.83792H39.5074V8.34992H36.8074V13.3179C36.8074 13.7859 36.9094 14.1219 37.1134 14.3259C37.3294 14.5179 37.6774 14.6139 38.1574 14.6139C38.4094 14.6139 38.6314 14.5959 38.8234 14.5599C39.0274 14.5239 39.2434 14.4699 39.4714 14.3979V15.9099C39.2314 15.9939 38.9494 16.0539 38.6254 16.0899C38.3134 16.1379 38.0254 16.1619 37.7614 16.1619Z" fill="white"/>
<path d="M27.544 16.18C26.536 16.18 25.564 15.982 24.628 15.586C23.692 15.19 22.864 14.632 22.144 13.912L23.296 12.58C23.98 13.252 24.676 13.75 25.384 14.074C26.104 14.398 26.854 14.56 27.634 14.56C28.246 14.56 28.78 14.476 29.236 14.308C29.704 14.128 30.064 13.876 30.316 13.552C30.568 13.228 30.694 12.862 30.694 12.454C30.694 11.89 30.496 11.458 30.1 11.158C29.704 10.858 29.05 10.63 28.138 10.474L26.032 10.132C24.88 9.92804 24.016 9.55604 23.44 9.01604C22.876 8.47604 22.594 7.75604 22.594 6.85604C22.594 6.13604 22.786 5.50604 23.17 4.96604C23.554 4.41404 24.094 3.98804 24.79 3.68804C25.498 3.38804 26.314 3.23804 27.238 3.23804C28.15 3.23804 29.044 3.38804 29.92 3.68804C30.808 3.97604 31.606 4.39604 32.314 4.94804L31.27 6.38804C29.914 5.35604 28.54 4.84004 27.148 4.84004C26.596 4.84004 26.116 4.91804 25.708 5.07404C25.3 5.23004 24.982 5.45204 24.754 5.74004C24.526 6.01604 24.412 6.34004 24.412 6.71204C24.412 7.22804 24.586 7.62404 24.934 7.90004C25.282 8.16404 25.858 8.35604 26.662 8.47604L28.696 8.81804C30.028 9.03404 31.006 9.42404 31.63 9.98804C32.254 10.552 32.566 11.326 32.566 12.31C32.566 13.078 32.356 13.756 31.936 14.344C31.516 14.92 30.928 15.37 30.172 15.694C29.416 16.018 28.54 16.18 27.544 16.18Z" fill="white"/>
<g clip-path="url(#clip0_6_8)">
<path d="M1.41711 7.47433L14.56 1.49719" stroke="#34DAA2" stroke-linecap="round" stroke-linejoin="round"/>
<path d="M12.1029 0.571411L14.56 1.49713L13.6458 3.95427" stroke="#34DAA2" stroke-linecap="round" stroke-linejoin="round"/>
<path d="M15.1429 15.4286H12.2858V7.42861C12.2858 7.27705 12.346 7.1317 12.4531 7.02455C12.5603 6.91738 12.7057 6.85718 12.8572 6.85718H14.5715C14.723 6.85718 14.8684 6.91738 14.9756 7.02455C15.0827 7.1317 15.1429 7.27705 15.1429 7.42861V15.4286Z" stroke="#34DAA2" stroke-linecap="round" stroke-linejoin="round"/>
<path d="M9.42855 15.4286H6.57141V9.14284C6.57141 8.99129 6.63162 8.84594 6.73878 8.73878C6.84594 8.63162 6.99129 8.57141 7.14284 8.57141H8.85713C9.00868 8.57141 9.15403 8.63162 9.26118 8.73878C9.36835 8.84594 9.42855 8.99129 9.42855 9.14284V15.4286Z" stroke="#34DAA2" stroke-linecap="round" stroke-linejoin="round"/>
<path d="M3.71432 15.4285H0.857178V10.8571C0.857178 10.7055 0.917382 10.5602 1.02455 10.453C1.13171 10.3459 1.27705 10.2856 1.42861 10.2856H3.14289C3.29445 10.2856 3.43979 10.3459 3.54695 10.453C3.65411 10.5602 3.71432 10.7055 3.71432 10.8571V15.4285Z" stroke="#34DAA2" stroke-linecap="round" stroke-linejoin="round"/>
</g>
<defs>
<clipPath id="clip0_6_8">
<rect width="16" height="16" fill="white"/>
</clipPath>
</defs>
</svg>
